<svg width="24" height="24" viewBox="0 0 24 24" fill="none" xmlns="http://www.w3.org/2000/svg">
  <path d="M19.14 12.94a7.14 7.14 0 0 0 0-1.88l2.03-1.58a.5.5 0 0 0 .12-.63l-1.92-3.32a.5.5 0 0 0-.6-.22l-2.39.96a7.02 7.02 0 0 0-1.6-.93L14.5 2.5a.5.5 0 0 0-.5-.5h-3.99a.5.5 0 0 0-.5.5l-.38 2.53c-.57.22-1.1.5-1.6.83l-2.39-.96a.5.5 0 0 0-.6.22L2.7 8.85a.5.5 0 0 0 .12.63l2.03 1.58c-.05.31-.08.63-.08.95s.03.64.08.95L2.82 14.6a.5.5 0 0 0-.12.63l1.92 3.32c.14.24.44.35.7.26l2.39-.96c.5.33 1.03.61 1.6.83l.38 2.53c.05.28.28.47.5.47h3.99c.22 0 .45-.19.5-.47l.38-2.53c.57-.22 1.1-.5 1.6-.83l2.39.96c.26.09.56-.02.7-.26l1.92-3.32a.5.5 0 0 0-.12-.63l-2.03-1.58zM12 15.5A3.5 3.5 0 1 1 12 8.5a3.5 3.5 0 0 1 0 7z" fill="white"/>
</svg>
